<svg clip-rule="evenodd" fill-rule="evenodd" stroke-linejoin="round" stroke-miterlimit="2" viewBox="0 0 560 400" xmlns="http://www.w3.org/2000/svg"><path d="m1911.64 1663.96c88.01 118.27 178.78 239.3 269.55 360.32-181.54 214.55-407.08 352.07-679.39 409.84-302.56 63.26-588.615 16.5-866.421-137.53 247.55-184.29 489.601-365.83 734.401-547.36 55.01 52.26 107.27 104.52 159.53 154.03 57.76 55.01 35.76 57.76 110.02 16.5 101.77-57.76 187.04-137.53 253.05-233.8 2.75-5.5 8.25-11 11-16.5-2.75 0 0 0 8.26-5.5zm-1080.972 242.05c-68.764 52.26-132.027 99.02-195.289 148.53-46.76 35.76-93.519 68.76-140.279 104.52-19.254 16.5-33.006 16.5-55.011-2.75-209.042-187.04-341.069-418.09-390.579-693.14-49.51-277.81-5.501-541.862 126.526-792.162 2.75-5.501 8.251-13.753 11.002-19.254 0-2.751 2.75-2.751 8.252-5.501 181.536 239.298 365.824 478.597 547.36 717.897-5.501 8.25-8.251 13.75-13.752 19.25-55.012 57.76-110.023 115.52-167.784 170.54-16.504 16.5-19.254 30.25-8.252 49.51 57.762 110.02 137.528 200.79 236.548 275.05 13.753 8.25 24.755 16.51 41.258 27.51zm1025.962-1708.098c-88.02 63.263-176.04 126.526-264.06 187.038-151.28 107.272-302.56 217.294-451.09 324.566-19.25 13.752-33.01 16.503-49.51-2.751-49.51-52.261-101.77-99.02-151.28-151.281-13.752-13.752-27.505-16.503-46.759-8.251-118.274 60.512-211.793 145.779-288.809 253.051-5.501 5.501-11.002 13.753-16.503 22.004-44.009-57.761-85.267-110.022-126.525-165.033-44.009-57.762-85.268-115.523-126.526-170.535-13.753-19.253-16.503-33.006 2.75-52.26 211.793-233.797 473.096-371.325 786.662-404.332 247.55-27.506 484.1 22.005 704.14 140.278 8.25 5.502 16.5 8.252 24.76 13.753 0 8.252 0 11.002 2.75 13.753zm448.34 1650.338c-57.77-74.27-110.03-143.03-162.29-211.8-121.02-159.53-242.05-321.81-365.82-481.34-16.5-22.01-16.5-35.76 2.75-55.01 52.26-52.27 101.77-104.527 154.03-156.787 13.75-13.753 19.25-27.506 8.25-46.76-60.51-115.523-143.03-211.792-250.3-288.808-8.25-5.501-16.5-13.753-27.5-19.254 8.25-8.252 16.5-13.753 22-19.254 104.52-79.766 209.04-156.782 313.56-236.548 16.51-13.752 30.26-19.254 49.51 0 261.31 236.548 401.59 530.858 415.34 885.681 5.5 206.29-41.26 401.58-134.78 585.87-8.25 11-16.5 24.75-24.75 44.01z" fill="#231815" fill-rule="nonzero" transform="matrix(.123014 0 0 .123014 126.56 47.206)"/></svg>